<svg xmlns="http://www.w3.org/2000/svg" xmlns:xlink="http://www.w3.org/1999/xlink" width="1366" zoomAndPan="magnify" viewBox="0 0 1024.5 576" height="768" preserveAspectRatio="xMidYMid meet" version="1.0"><defs><clipPath id="2aff73a222"><path d="M 451 175 L 574.847656 175 L 574.847656 402.992188 L 451 402.992188 Z M 451 175 " clip-rule="nonzero"/></clipPath></defs><g clip-path="url(#2aff73a222)"><path fill="#000000" d="M 469.746094 207.09375 C 459.089844 221.199219 455.097656 241.222656 458.070312 266.542969 C 458.855469 272.871094 459.96875 279.144531 461.414062 285.355469 C 462.863281 291.566406 464.636719 297.683594 466.730469 303.703125 C 468.828125 309.726562 471.238281 315.621094 473.960938 321.386719 C 476.683594 327.152344 479.703125 332.757812 483.019531 338.203125 C 486.339844 343.648438 489.9375 348.902344 493.8125 353.960938 C 497.6875 359.023438 501.820312 363.867188 506.207031 368.488281 C 510.597656 373.109375 515.21875 377.484375 520.074219 381.617188 C 524.929688 385.746094 529.988281 389.605469 535.25 393.199219 L 523.996094 369.21875 C 523.859375 368.96875 523.78125 368.703125 523.761719 368.421875 C 523.738281 368.136719 523.777344 367.863281 523.871094 367.597656 C 523.96875 367.328125 524.113281 367.09375 524.308594 366.890625 C 524.503906 366.683594 524.730469 366.527344 524.992188 366.421875 C 525.316406 366.273438 525.652344 366.207031 526.007812 366.230469 C 526.359375 366.25 526.6875 366.355469 526.988281 366.539062 C 527.339844 366.753906 527.597656 367.046875 527.765625 367.417969 L 542.816406 399.394531 C 542.960938 399.714844 543.023438 400.054688 543.003906 400.40625 C 542.984375 400.761719 542.878906 401.089844 542.695312 401.390625 C 542.5 401.691406 542.246094 401.929688 541.929688 402.097656 C 541.617188 402.269531 541.277344 402.351562 540.917969 402.351562 L 505.574219 402.492188 C 505.304688 402.488281 505.046875 402.4375 504.796875 402.335938 C 504.546875 402.234375 504.324219 402.089844 504.128906 401.90625 C 503.9375 401.71875 503.78125 401.503906 503.667969 401.261719 C 503.558594 401.015625 503.492188 400.761719 503.476562 400.492188 C 503.476562 400.226562 503.527344 399.972656 503.628906 399.726562 C 503.730469 399.484375 503.875 399.265625 504.0625 399.078125 C 504.25 398.890625 504.464844 398.746094 504.710938 398.644531 C 504.953125 398.542969 505.207031 398.492188 505.472656 398.492188 L 532 398.492188 C 526.542969 394.773438 521.300781 390.777344 516.273438 386.5 C 511.242188 382.222656 506.457031 377.6875 501.910156 372.902344 C 497.363281 368.113281 493.082031 363.09375 489.066406 357.851562 C 485.054688 352.605469 481.332031 347.164062 477.898438 341.519531 C 474.464844 335.878906 471.339844 330.070312 468.523438 324.09375 C 465.707031 318.117188 463.214844 312.011719 461.050781 305.769531 C 458.882812 299.527344 457.054688 293.191406 455.5625 286.753906 C 454.070312 280.316406 452.925781 273.820312 452.125 267.261719 C 448.929688 240.34375 453.261719 218.863281 464.976562 203.316406 C 476.035156 188.808594 494.417969 179.113281 516.710938 176.175781 C 536.269531 173.597656 555.910156 176.21875 574.847656 178.734375 L 574.050781 184.730469 C 555.449219 182.253906 536.128906 179.675781 517.429688 182.171875 C 496.792969 184.871094 479.847656 193.703125 469.746094 207.09375 Z M 469.746094 207.09375 " fill-opacity="1" fill-rule="nonzero"/></g></svg>