<svg width="53" height="50" viewBox="0 0 53 50" fill="none" xmlns="http://www.w3.org/2000/svg">
<g clip-path="url(#clip0_2153_479)">
<path d="M5.99154 14.0303L1.17969 18.1176L5.99154 20.6218V14.0303Z" fill="white"/>
<path d="M0.138672 20.6221V40.1339L16.1364 28.928L0.138672 20.6221Z" fill="white"/>
<path d="M44.2303 22.0729V-0.0761719H8.59375V22.0729L26.412 31.3008L44.2303 22.0729ZM16.7875 13.8983C16.7875 8.36195 21.0792 4.14245 26.5416 4.14245C32.0041 4.14245 36.0366 8.22974 36.0366 13.767C36.0366 17.0628 34.2152 19.3043 31.744 19.3043C30.4436 19.3043 29.4033 18.7763 29.1433 17.5899C29.1433 17.5899 29.1433 17.5899 29.1433 17.4585C29.1433 17.3263 28.8832 17.7221 28.4926 17.9856C27.7124 18.7763 26.8017 19.0407 25.7614 19.0407C23.2902 19.0407 20.9496 16.9305 20.9496 13.767C20.9496 10.8662 22.7701 8.49329 25.5013 8.49329C26.5416 8.49329 27.3219 8.88906 27.842 9.28483C28.2326 9.54838 28.4926 9.67972 28.363 9.41617C28.2326 9.15261 28.6231 8.88906 29.1433 8.88906H31.0943C31.6144 8.88906 31.8745 9.28483 31.744 9.81194V9.94328C31.484 10.4713 31.3543 11.2619 31.3543 11.789V16.5356C31.3543 17.3263 31.744 17.5899 32.1346 17.5899C33.0453 17.5899 33.9551 16.1399 33.9551 14.0306C33.9551 9.67972 31.2239 6.38398 26.6721 6.38398C22.51 6.38398 19.1281 9.81194 19.1281 14.0306C19.1281 18.2492 22.2499 21.4136 26.412 21.4136C27.5819 21.4136 29.0128 20.8865 29.793 20.3585C30.1836 20.0949 30.5741 19.9636 30.8342 20.4907L31.484 21.5449C31.744 21.9407 31.484 22.3365 31.0943 22.6C30.1836 22.9958 28.6231 23.6542 26.5416 23.6542C20.8191 23.2593 16.7875 19.3043 16.7875 13.8983Z" fill="white"/>
<mask id="mask0_2153_479" style="mask-type:luminance" maskUnits="userSpaceOnUse" x="0" y="30" width="53" height="20">
<path d="M0.0683594 30.0664H52.9339V49.7586H0.0683594V30.0664Z" fill="white"/>
</mask>
<g mask="url(#mask0_2153_479)">
<path d="M27.0633 33.9381C26.6736 34.0694 26.2831 34.0694 25.8934 33.9381L18.8696 30.2466L0.140625 43.1669V49.7584H52.8161V43.1669L34.0871 30.2466L27.0633 33.9381Z" fill="white"/>
</g>
<path d="M26.022 11.1296C24.7216 11.1296 23.9414 12.3169 23.9414 13.7669C23.9414 15.2169 24.7216 16.5356 26.022 16.5356C27.4529 16.5356 28.2331 15.2169 28.2331 13.7669C28.3636 12.3169 27.4529 11.1296 26.022 11.1296Z" fill="white"/>
<path d="M36.6855 28.928L52.8138 40.1339V20.6221L36.6855 28.928Z" fill="white"/>
<path d="M46.8301 14.0303V20.6218L51.6428 18.1176L46.8301 14.0303Z" fill="white"/>
</g>
<defs>
<clipPath id="clip0_2153_479">
<rect width="53" height="50" fill="white"/>
</clipPath>
</defs>
</svg>
