<svg xmlns="http://www.w3.org/2000/svg" xmlns:xlink="http://www.w3.org/1999/xlink" width="940" zoomAndPan="magnify" viewBox="0 0 705 591.000005" height="788" preserveAspectRatio="xMidYMid meet" version="1.0"><defs><clipPath id="5a90972908"><path d="M 233 325 L 472 325 L 472 412.851562 L 233 412.851562 Z M 233 325 " clip-rule="nonzero"/></clipPath></defs><path fill="#000000" d="M 259.785156 253.460938 L 238.03125 271.695312 L 259.785156 282.867188 Z M 259.785156 253.460938 " fill-opacity="1" fill-rule="nonzero"/><path fill="#000000" d="M 233.324219 282.867188 L 233.324219 369.914062 L 305.648438 319.921875 Z M 233.324219 282.867188 " fill-opacity="1" fill-rule="nonzero"/><path fill="#000000" d="M 432.65625 289.339844 L 432.65625 190.527344 L 271.546875 190.527344 L 271.546875 289.339844 L 352.101562 330.507812 Z M 308.589844 252.871094 C 308.589844 228.171875 327.992188 209.347656 352.6875 209.347656 C 377.382812 209.347656 395.613281 227.582031 395.613281 252.285156 C 395.613281 266.988281 387.378906 276.988281 376.207031 276.988281 C 370.328125 276.988281 365.625 274.632812 364.449219 269.339844 C 364.449219 269.339844 364.449219 269.339844 364.449219 268.753906 C 364.449219 268.164062 363.273438 269.929688 361.507812 271.105469 C 357.980469 274.632812 353.863281 275.8125 349.160156 275.8125 C 337.988281 275.8125 327.40625 266.398438 327.40625 252.285156 C 327.40625 239.34375 335.636719 228.757812 347.984375 228.757812 C 352.6875 228.757812 356.214844 230.523438 358.566406 232.289062 C 360.332031 233.464844 361.507812 234.050781 360.921875 232.875 C 360.332031 231.699219 362.097656 230.523438 364.449219 230.523438 L 373.269531 230.523438 C 375.621094 230.523438 376.796875 232.289062 376.207031 234.640625 L 376.207031 235.226562 C 375.03125 237.582031 374.445312 241.109375 374.445312 243.460938 L 374.445312 264.636719 C 374.445312 268.164062 376.207031 269.339844 377.972656 269.339844 C 382.089844 269.339844 386.203125 262.871094 386.203125 253.460938 C 386.203125 234.050781 373.855469 219.347656 353.277344 219.347656 C 334.460938 219.347656 319.171875 234.640625 319.171875 253.460938 C 319.171875 272.28125 333.285156 286.398438 352.101562 286.398438 C 357.390625 286.398438 363.859375 284.046875 367.386719 281.691406 C 369.152344 280.515625 370.917969 279.929688 372.09375 282.28125 L 375.03125 286.984375 C 376.207031 288.75 375.03125 290.515625 373.269531 291.691406 C 369.152344 293.457031 362.097656 296.394531 352.6875 296.394531 C 326.816406 294.632812 308.589844 276.988281 308.589844 252.871094 Z M 308.589844 252.871094 " fill-opacity="1" fill-rule="nonzero"/><g clip-path="url(#5a90972908)"><path fill="#000000" d="M 355.039062 342.273438 C 353.277344 342.859375 351.511719 342.859375 349.75 342.273438 L 317.996094 325.804688 L 233.324219 383.445312 L 233.324219 412.851562 L 471.464844 412.851562 L 471.464844 383.445312 L 386.792969 325.804688 Z M 355.039062 342.273438 " fill-opacity="1" fill-rule="nonzero"/></g><path fill="#000000" d="M 350.335938 240.519531 C 344.457031 240.519531 340.929688 245.816406 340.929688 252.285156 C 340.929688 258.753906 344.457031 264.636719 350.335938 264.636719 C 356.804688 264.636719 360.332031 258.753906 360.332031 252.285156 C 360.921875 245.816406 356.804688 240.519531 350.335938 240.519531 Z M 350.335938 240.519531 " fill-opacity="1" fill-rule="nonzero"/><path fill="#000000" d="M 398.550781 319.921875 L 471.464844 369.914062 L 471.464844 282.867188 Z M 398.550781 319.921875 " fill-opacity="1" fill-rule="nonzero"/><path fill="#000000" d="M 352.101562 177 L 350.335938 178.765625 L 353.863281 178.765625 Z M 352.101562 177 " fill-opacity="1" fill-rule="nonzero"/><path fill="#000000" d="M 444.414062 253.460938 L 444.414062 282.867188 L 466.171875 271.695312 Z M 444.414062 253.460938 " fill-opacity="1" fill-rule="nonzero"/></svg>