<svg xmlns="http://www.w3.org/2000/svg" xmlns:xlink="http://www.w3.org/1999/xlink" width="940" zoomAndPan="magnify" viewBox="0 0 705 591.000005" height="788" preserveAspectRatio="xMidYMid meet" version="1.0"><defs><clipPath id="162974be72"><path d="M 234.5 177 L 470.351562 177 L 470.351562 412.851562 L 234.5 412.851562 Z M 234.5 177 " clip-rule="nonzero"/></clipPath></defs><g clip-path="url(#162974be72)"><path fill="#000000" d="M 470.492188 377.109375 C 470.492188 396.914062 454.4375 412.96875 434.628906 412.96875 L 270.367188 412.96875 C 250.5625 412.96875 234.507812 396.914062 234.507812 377.109375 L 234.507812 212.84375 C 234.507812 193.039062 250.5625 176.984375 270.367188 176.984375 L 434.632812 176.984375 C 454.4375 176.984375 470.492188 193.039062 470.492188 212.84375 Z M 470.492188 377.109375 " fill-opacity="1" fill-rule="nonzero"/></g><path fill="#ffffff" d="M 327.820312 261.179688 C 327.820312 261.753906 327.792969 262.332031 327.734375 262.90625 C 327.679688 263.480469 327.59375 264.050781 327.480469 264.617188 C 327.371094 265.183594 327.230469 265.742188 327.0625 266.296875 C 326.894531 266.847656 326.699219 267.390625 326.480469 267.925781 C 326.257812 268.457031 326.011719 268.980469 325.738281 269.488281 C 325.46875 269.996094 325.171875 270.492188 324.851562 270.972656 C 324.53125 271.453125 324.1875 271.914062 323.820312 272.363281 C 323.453125 272.808594 323.066406 273.234375 322.65625 273.644531 C 322.25 274.050781 321.820312 274.4375 321.375 274.804688 C 320.929688 275.171875 320.464844 275.515625 319.988281 275.835938 C 319.507812 276.15625 319.011719 276.453125 318.503906 276.726562 C 317.992188 276.996094 317.472656 277.242188 316.9375 277.464844 C 316.40625 277.6875 315.863281 277.878906 315.308594 278.046875 C 314.757812 278.214844 314.199219 278.355469 313.632812 278.46875 C 313.066406 278.582031 312.496094 278.664062 311.921875 278.722656 C 311.347656 278.777344 310.769531 278.808594 310.191406 278.808594 C 309.613281 278.808594 309.039062 278.777344 308.464844 278.722656 C 307.890625 278.664062 307.320312 278.582031 306.753906 278.46875 C 306.1875 278.355469 305.628906 278.214844 305.074219 278.046875 C 304.523438 277.878906 303.980469 277.6875 303.445312 277.464844 C 302.914062 277.242188 302.390625 276.996094 301.882812 276.726562 C 301.375 276.453125 300.878906 276.15625 300.398438 275.835938 C 299.917969 275.515625 299.457031 275.171875 299.007812 274.804688 C 298.5625 274.4375 298.136719 274.050781 297.726562 273.644531 C 297.320312 273.234375 296.929688 272.808594 296.566406 272.363281 C 296.199219 271.914062 295.855469 271.453125 295.535156 270.972656 C 295.214844 270.492188 294.917969 269.996094 294.644531 269.488281 C 294.375 268.980469 294.125 268.457031 293.90625 267.925781 C 293.683594 267.390625 293.492188 266.847656 293.324219 266.296875 C 293.15625 265.742188 293.015625 265.183594 292.902344 264.617188 C 292.789062 264.050781 292.707031 263.480469 292.648438 262.90625 C 292.59375 262.332031 292.5625 261.753906 292.5625 261.179688 C 292.5625 260.601562 292.59375 260.023438 292.648438 259.449219 C 292.707031 258.875 292.789062 258.304688 292.902344 257.738281 C 293.015625 257.171875 293.15625 256.613281 293.324219 256.0625 C 293.492188 255.507812 293.683594 254.964844 293.90625 254.433594 C 294.125 253.898438 294.375 253.378906 294.644531 252.867188 C 294.917969 252.359375 295.214844 251.863281 295.535156 251.382812 C 295.855469 250.902344 296.199219 250.441406 296.566406 249.996094 C 296.929688 249.546875 297.320312 249.121094 297.726562 248.710938 C 298.136719 248.304688 298.5625 247.917969 299.007812 247.550781 C 299.457031 247.183594 299.917969 246.839844 300.398438 246.519531 C 300.878906 246.199219 301.375 245.902344 301.882812 245.632812 C 302.390625 245.359375 302.914062 245.113281 303.445312 244.890625 C 303.980469 244.671875 304.523438 244.476562 305.074219 244.308594 C 305.628906 244.140625 306.1875 244 306.753906 243.886719 C 307.320312 243.777344 307.890625 243.691406 308.464844 243.632812 C 309.039062 243.578125 309.613281 243.550781 310.191406 243.550781 C 310.769531 243.550781 311.347656 243.578125 311.921875 243.632812 C 312.496094 243.691406 313.066406 243.777344 313.632812 243.886719 C 314.199219 244 314.757812 244.140625 315.308594 244.308594 C 315.863281 244.476562 316.40625 244.671875 316.9375 244.890625 C 317.472656 245.113281 317.992188 245.359375 318.503906 245.632812 C 319.011719 245.902344 319.507812 246.199219 319.988281 246.519531 C 320.464844 246.839844 320.929688 247.183594 321.375 247.550781 C 321.820312 247.917969 322.25 248.304688 322.65625 248.710938 C 323.066406 249.121094 323.453125 249.546875 323.820312 249.996094 C 324.1875 250.441406 324.53125 250.902344 324.851562 251.382812 C 325.171875 251.863281 325.46875 252.359375 325.738281 252.867188 C 326.011719 253.378906 326.257812 253.898438 326.480469 254.433594 C 326.699219 254.964844 326.894531 255.507812 327.0625 256.0625 C 327.230469 256.613281 327.371094 257.171875 327.480469 257.738281 C 327.59375 258.304688 327.679688 258.875 327.734375 259.449219 C 327.792969 260.023438 327.820312 260.601562 327.820312 261.179688 Z M 327.820312 261.179688 " fill-opacity="1" fill-rule="nonzero"/><path fill="#ffffff" d="M 294.996094 291.804688 L 325.28125 291.804688 L 325.28125 389.230469 L 294.996094 389.230469 Z M 294.996094 291.804688 " fill-opacity="1" fill-rule="nonzero"/><path fill="#ffffff" d="M 344.328125 291.804688 L 373.152344 291.804688 L 373.152344 389.230469 L 344.328125 389.230469 Z M 344.328125 291.804688 " fill-opacity="1" fill-rule="nonzero"/><path fill="#ffffff" d="M 345.574219 343.675781 L 374.398438 343.675781 L 374.398438 389.230469 L 345.574219 389.230469 Z M 345.574219 343.675781 " fill-opacity="1" fill-rule="nonzero"/><path fill="#ffffff" d="M 374.398438 343.675781 C 374.398438 343.675781 373.949219 331.039062 377.28125 324.46875 C 377.28125 324.46875 380.613281 316.378906 391.089844 316.328125 C 391.089844 316.328125 403.375 314.183594 406.898438 326.375 C 406.898438 326.375 408.234375 333.136719 408.234375 335.996094 C 408.234375 338.851562 408.328125 389.230469 408.328125 389.230469 L 438.515625 389.230469 L 438.515625 333.421875 C 438.515625 333.421875 440.707031 301.898438 421.789062 293.261719 C 421.789062 293.261719 390.675781 279.296875 373.789062 304.945312 C 373.789062 304.945312 370.105469 307.484375 369.597656 300.375 C 369.089844 293.261719 364.773438 311.296875 364.644531 311.675781 C 364.519531 312.058594 369.597656 347.613281 369.597656 347.613281 Z M 374.398438 343.675781 " fill-opacity="1" fill-rule="nonzero"/></svg>