<svg width="53" height="52" viewBox="0 0 53 52" fill="none" xmlns="http://www.w3.org/2000/svg">
<mask id="mask0_2153_492" style="mask-type:luminance" maskUnits="userSpaceOnUse" x="0" y="0" width="53" height="52">
<path d="M0 0H52.0324V52H0V0Z" fill="white"/>
</mask>
<g mask="url(#mask0_2153_492)">
<path d="M44.2694 44.3085H36.57V32.256C36.57 29.3816 36.5197 25.6817 32.5653 25.6817C28.6136 25.6817 27.943 28.8136 27.943 32.049V44.3085H20.2436V19.5214H27.6329V22.9108H27.7363C29.2417 20.3362 32.0458 18.7968 35.0301 18.9083C42.8329 18.9083 44.272 24.0388 44.272 30.7139V44.3111L44.2694 44.3085ZM11.5583 16.1347C9.09082 16.1347 7.09243 14.1361 7.08978 11.6678C7.08713 9.19944 9.08817 7.20352 11.5557 7.20087C14.0258 7.20087 16.0242 9.19944 16.0269 11.6651C16.0269 14.1335 14.0285 16.1321 11.5583 16.1347ZM15.4093 44.3085H7.70202V19.5214H15.4093V44.3085ZM48.1072 0.0532583H3.83511C1.7413 0.0320251 0.0238533 1.70679 0 3.80091V48.2472C0.0238533 50.3387 1.7413 52.0161 3.83511 51.9949H48.1098C50.2089 52.0214 51.9317 50.344 51.9608 48.2472V3.7956C51.929 1.69883 50.2063 0.0240623 48.1072 0.0506041" fill="white"/>
</g>
</svg>
