<?xml version="1.0" encoding="UTF-8"?>
<svg id="Laag_2" data-name="Laag 2" xmlns="http://www.w3.org/2000/svg" viewBox="0 0 348.32 476.26">
  <defs>
    <style>
      .cls-1 {
        fill: #1d1d1b;
      }
    </style>
  </defs>
  <g id="Laag_1-2" data-name="Laag 1">
    <path class="cls-1" d="M163.61,183.49c-3.3,2.38-6.47,4.91-9.49,7.61l10.84-8.59c-.45.32-.9.65-1.35.98ZM167.39,173.09c10.99-7.05,22.8-12.33,35.34-15.76L141.71,0h-6.87L33.92,260.24c-8.31,21.47-19.6,33.92-33.92,37.36v8.59c8.59-.86,19.32-1.29,32.21-1.29,16.59,0,33.06.43,49.38,1.29v-8.59c-12.6-.28-21.97-2.43-28.13-6.44-6.16-4.02-9.23-10.46-9.23-19.33,0-8.03,2.86-19.75,8.59-35.21l17.6-45.52h74.6c3-3.03,6.16-5.9,9.44-8.59h-80.6L122.81,54.11l44.58,118.98ZM245.2,270.67l-35.51-91.58c-5.56,2.64-10.82,6.19-15.83,10.61-5.49,4.87-10.52,10.71-15.05,17.43l20.44,54.95c3.44,8.59,5.16,15.31,5.16,20.18,0,5.71-2.36,9.66-7.09,11.81-4.72,2.15-12.52,3.5-23.4,4.08v8.59c12.02-.86,30.34-1.29,54.96-1.29,19.18,0,34.51.43,45.95,1.29v-8.59c-12.88-.58-22.76-9.75-29.63-27.48Z"/>
    <path class="cls-1" d="M346.6,367.17c0,49.23.58,83.59,1.72,103.06h-9.55c-.86-9.19-2.09-15.72-3.66-19.59-1.57-3.88-3.81-5.82-6.68-5.82-2.3,0-5.31,1.14-9.04,3.45-12.92,9.19-25.26,16.15-37.03,20.88-11.78,4.74-25.99,7.11-42.64,7.11-27.28,0-51.18-6.18-71.7-18.52-20.52-12.34-36.45-30.21-47.8-53.61-11.35-23.41-17.01-51.31-17.01-83.76s5.81-59.58,17.44-83.98c7.02-14.71,15.7-27.45,26.07-38.2,2.01-2.11,4.12-4.15,6.29-6.09.37-.34.74-.67,1.11-1,3.02-2.7,6.19-5.23,9.49-7.61.45-.33.9-.66,1.35-.98,1.26-.9,2.54-1.78,3.84-2.62.13-.09.27-.19.4-.27.04-.03.07-.05.11-.07,10.9-7.07,22.55-12.28,34.97-15.61.12-.04.25-.07.37-.1,1.84-.52,3.72-.99,5.62-1.37,9.51-2.13,19.46-3.16,29.88-3.16,17.23,0,31.87,2.43,43.93,7.32,12.06,4.89,23.83,11.77,35.31,20.67,3.17,2.58,5.88,3.87,8.18,3.87,5.75,0,9.48-8.61,11.2-25.83h9.55c-1.14,18.61-1.72,51.53-1.72,98.76h-9.08c-3.18-18.77-6.06-32.26-8.66-40.49-2.6-8.22-6.93-16.08-12.99-23.6-8.66-11.26-19.71-19.7-33.13-25.33-13.42-5.63-27.93-8.44-43.52-8.44-9.14,0-17.69,1.47-25.7,4.41-1.91.7-3.79,1.5-5.65,2.39-1.58.74-3.13,1.54-4.66,2.4-.38.21-.76.43-1.14.66-.27.15-.53.31-.8.48-3.89,2.34-7.62,5.11-11.2,8.28-4.8,4.23-9.22,9.08-13.25,14.56-.16.21-.31.41-.46.62-1.47,1.99-2.88,4.07-4.22,6.21-5.78,9.12-10.69,19.66-14.76,31.66-7.8,22.95-11.7,49.86-11.7,80.76s4.18,58.46,12.56,80.98c8.38,22.51,19.99,39.62,34.86,51.31,14.88,11.69,31.68,17.54,50.45,17.54,14.44,0,28.43-2.75,42.01-8.23,13.57-5.48,24.25-13.7,32.04-24.68,5.78-8.08,9.96-16.74,12.56-25.99,2.6-9.24,5.04-23.38,7.36-42.43h9.08Z"/>
  </g>
</svg>