<svg xmlns="http://www.w3.org/2000/svg" xmlns:xlink="http://www.w3.org/1999/xlink" width="1366" zoomAndPan="magnify" viewBox="0 0 1024.5 576" height="768" preserveAspectRatio="xMidYMid meet" version="1.0"><defs><clipPath id="c42ca0f72d"><path d="M 432.40625 173 L 591.328125 173 L 591.328125 402.992188 L 432.40625 402.992188 Z M 432.40625 173 " clip-rule="nonzero"/></clipPath></defs><g clip-path="url(#c42ca0f72d)"><path fill="#000000" d="M 579.523438 231.945312 C 585.125 234.542969 589.339844 238.480469 591.328125 243.484375 C 589.664062 234.355469 580.820312 227.683594 569.570312 224.949219 C 562.859375 223.234375 555.3125 222.726562 547.535156 223.144531 C 544.851562 223.28125 542.121094 223.558594 539.34375 223.929688 C 543.878906 221.9375 549.574219 221.566406 555.3125 222.726562 C 551.425781 220.964844 547.167969 219.804688 543.09375 219.527344 C 543.183594 219.480469 543.230469 219.480469 543.324219 219.433594 C 543.695312 219.25 544.066406 219.066406 544.433594 218.925781 C 544.621094 218.832031 544.851562 218.742188 545.035156 218.695312 C 545.269531 218.648438 545.453125 218.601562 545.683594 218.554688 C 549.34375 217.859375 557.859375 219.621094 557.90625 219.433594 C 557.953125 219.34375 557.90625 219.203125 557.8125 219.109375 C 555.777344 217.070312 552.90625 215.496094 550.035156 214.570312 C 554.015625 214.339844 558.183594 215.125 562.398438 216.378906 C 559.710938 215.035156 556.839844 213.828125 553.878906 212.996094 C 558.230469 212.949219 562.074219 213.039062 566.792969 213.875 C 564.15625 211.046875 560.128906 209.425781 556.425781 208.683594 C 558.089844 207.898438 560.453125 208.082031 563.324219 209.007812 C 564.15625 209.289062 565.128906 209.566406 566.007812 209.84375 C 566.609375 210.074219 569.203125 210.632812 568.921875 210.445312 C 568.367188 210.074219 566.980469 209.101562 566.46875 208.777344 C 565.636719 208.269531 564.710938 207.710938 563.878906 207.25 L 563.367188 206.96875 C 567.441406 206.414062 571.886719 206.597656 576.515625 207.617188 C 574.109375 206.183594 571.46875 204.976562 568.738281 203.910156 C 573.042969 203.261719 577.765625 203.867188 582.394531 205.535156 C 580.359375 204.191406 578.183594 202.9375 575.820312 201.964844 C 575.867188 201.964844 575.914062 201.964844 575.960938 201.964844 C 576.746094 201.917969 577.582031 201.917969 578.367188 201.871094 C 579.199219 201.871094 580.035156 201.871094 580.867188 201.871094 C 581.699219 201.871094 582.578125 201.917969 583.460938 201.917969 C 582.671875 201.457031 581.839844 200.992188 580.960938 200.574219 C 580.125 200.203125 579.246094 199.789062 578.367188 199.464844 C 577.488281 199.140625 576.609375 198.816406 575.683594 198.535156 C 557.953125 193.160156 541.566406 199.789062 533 211 C 528.277344 191.308594 517.03125 177.5 503.699219 173.097656 C 507.214844 175.597656 510.457031 178.609375 513.28125 182.363281 C 512.769531 181.945312 512.167969 181.578125 511.613281 181.207031 C 510.734375 180.648438 509.808594 180.230469 508.882812 179.90625 C 507.355469 179.398438 505.828125 179.121094 504.253906 179.121094 C 504.160156 179.121094 504.066406 179.257812 504.066406 179.398438 C 504.066406 179.539062 506.84375 181.390625 508.050781 182.457031 C 508.652344 183.011719 509.253906 183.570312 509.808594 184.21875 L 510.226562 184.679688 L 510.640625 185.144531 C 510.917969 185.46875 511.195312 185.792969 511.429688 186.117188 C 511.796875 186.582031 512.167969 187.136719 512.492188 187.691406 C 510.269531 187.042969 507.910156 186.953125 505.503906 188.0625 C 509.113281 190.335938 512.539062 192.234375 516.058594 194.644531 C 513.28125 194.457031 510.363281 195.476562 507.632812 197.144531 C 511.058594 196.730469 514.390625 197.609375 517.03125 200.113281 C 515.132812 200.113281 512.121094 200.761719 512.121094 200.992188 C 512.121094 201.132812 512.261719 201.316406 512.261719 201.316406 C 514.160156 202.242188 515.824219 203.585938 517.492188 205.070312 C 518.648438 206.183594 519.992188 207.25 521.058594 208.546875 C 521.011719 208.546875 521.011719 208.546875 520.964844 208.546875 C 517.03125 204.5625 512.402344 202.011719 506.429688 199.695312 C 497.402344 195.988281 487.125 195.433594 478.328125 199.464844 C 477.03125 200.019531 475.738281 200.761719 474.53125 201.546875 C 473.929688 201.917969 473.328125 202.382812 472.773438 202.800781 C 472.589844 202.890625 472.542969 203.125 472.589844 203.355469 C 472.679688 203.585938 479.902344 201.503906 483.28125 201.316406 C 480.644531 202.707031 478.28125 204.886719 476.570312 207.386719 C 476.523438 207.480469 476.476562 207.617188 476.570312 207.710938 C 476.664062 207.851562 480.457031 205.859375 482.265625 205.300781 C 484.347656 204.652344 486.429688 204.328125 488.558594 204.375 C 486.292969 205.71875 484.117188 207.574219 482.820312 209.980469 C 482.773438 210.121094 482.726562 210.261719 482.820312 210.398438 C 483.234375 210.492188 488.652344 208.175781 490.734375 208.269531 C 490.457031 208.59375 490.179688 208.917969 489.949219 209.242188 L 488.976562 210.539062 C 488.558594 211.1875 488.097656 211.929688 487.679688 212.625 C 487.449219 213.085938 486.800781 214.292969 486.570312 214.753906 C 486.941406 214.382812 487.867188 213.503906 488.234375 213.132812 C 488.792969 212.671875 489.4375 212.160156 489.996094 211.695312 L 491.246094 210.863281 C 494.070312 209.242188 496.523438 208.777344 498.375 208.824219 C 495.273438 210.539062 492.496094 213.039062 490.320312 215.867188 C 493.144531 213.875 496.199219 212.484375 499.484375 211.835938 C 497.726562 213.085938 494.671875 216.421875 494.714844 216.5625 C 494.855469 216.746094 500.6875 214.476562 503.09375 214.292969 C 500.921875 215.496094 498.929688 217.027344 497.171875 218.695312 C 500.132812 217.027344 503.28125 215.960938 506.476562 215.496094 C 504.949219 216.839844 503.699219 218.554688 502.957031 220.363281 C 502.863281 220.363281 502.816406 220.363281 502.726562 220.410156 C 496.152344 221.984375 489.808594 224.671875 484.207031 228.378906 C 476.152344 233.894531 469.671875 241.445312 464.488281 249.464844 C 464.394531 249.648438 464.394531 249.835938 464.535156 250.019531 C 464.71875 250.203125 467.21875 247.980469 468.285156 247.007812 C 467.820312 247.886719 467.402344 248.769531 467.125 249.695312 C 467.078125 249.789062 467.21875 249.925781 467.3125 249.835938 C 469.765625 247.75 471.894531 245.757812 474.070312 243.484375 C 472.820312 246.3125 472.078125 249.464844 471.894531 252.476562 C 473.652344 247.796875 476.664062 243.625 480.78125 240.84375 C 479.53125 243.808594 478.839844 247.191406 479.023438 250.390625 C 479.117188 250.4375 481.753906 246.636719 482.726562 245.0625 C 483.699219 243.347656 485.78125 239.777344 486.753906 238.109375 C 485.597656 241.355469 484.996094 244.96875 485.828125 248.351562 C 485.828125 248.351562 486.753906 244.089844 487.585938 242.140625 C 487.957031 241.167969 488.421875 240.242188 488.976562 239.363281 C 489.484375 238.433594 490.042969 237.601562 490.644531 236.765625 C 491.613281 235.375 492.910156 234.265625 494.023438 232.964844 C 494.023438 232.964844 494.023438 232.964844 494.023438 233.011719 C 491.523438 236.859375 489.808594 241.355469 489.207031 245.800781 C 490.179688 243.394531 491.429688 241.167969 492.910156 239.175781 C 492.863281 241.121094 493.144531 242.976562 493.511719 244.828125 C 493.558594 244.96875 493.605469 245.0625 493.746094 245.109375 C 493.929688 245.199219 495.78125 241.121094 496.707031 239.5 C 497.585938 237.925781 498.558594 236.488281 499.625 235.421875 C 498.511719 237.785156 498.234375 240.566406 498.511719 243.113281 C 498.976562 239.082031 501.199219 235.515625 504.667969 233.476562 C 503.605469 236.210938 503.234375 239.5 504.066406 242.234375 C 502.449219 244.320312 501.058594 246.589844 499.855469 249.046875 C 499.484375 249.789062 499.160156 250.574219 498.789062 251.363281 C 498.464844 252.152344 498.140625 252.9375 497.863281 253.726562 C 495.550781 260.027344 494.300781 267.027344 493.976562 274.164062 C 493.929688 274.671875 493.929688 275.226562 493.929688 275.738281 C 493.652344 275.96875 493.375 276.246094 493.097656 276.480469 C 489.902344 279.628906 487.542969 283.894531 486.199219 288.433594 C 486.335938 284.355469 487.957031 280.371094 490.6875 277.265625 C 488.328125 278.796875 486.246094 280.835938 484.765625 283.246094 C 484.765625 283.199219 484.765625 283.105469 484.765625 283.058594 C 484.765625 282.734375 484.765625 282.410156 484.808594 282.085938 C 484.808594 281.902344 484.855469 281.761719 484.855469 281.578125 C 484.902344 281.4375 484.949219 281.253906 484.996094 281.113281 C 485.78125 278.472656 489.625 274.023438 489.53125 273.929688 C 489.484375 273.835938 489.394531 273.835938 489.300781 273.835938 C 487.402344 274.023438 485.457031 275.042969 483.976562 276.339844 C 485.132812 273.699219 486.984375 271.519531 489.117188 269.574219 C 487.402344 270.546875 485.734375 271.707031 484.253906 273.097656 C 485.644531 270.316406 486.941406 268 488.976562 265.496094 C 486.382812 265.683594 484.070312 267.351562 482.402344 269.296875 C 482.496094 267.859375 483.328125 266.46875 484.808594 265.125 C 485.273438 264.753906 485.734375 264.292969 486.199219 263.875 C 486.523438 263.644531 487.726562 262.300781 487.542969 262.347656 C 487.125 262.484375 486.105469 262.855469 485.691406 262.996094 C 485.089844 263.273438 484.484375 263.550781 483.929688 263.828125 L 483.605469 264.015625 C 484.578125 261.1875 486.152344 258.5 488.28125 256.089844 C 486.617188 256.878906 484.996094 257.851562 483.46875 259.007812 C 484.441406 255.996094 486.382812 253.355469 488.882812 251.316406 C 487.402344 251.871094 485.921875 252.613281 484.578125 253.542969 C 484.578125 253.496094 484.625 253.496094 484.625 253.449219 C 484.855469 252.9375 485.132812 252.429688 485.367188 251.871094 C 485.644531 251.363281 485.921875 250.855469 486.152344 250.296875 C 486.429688 249.789062 486.753906 249.277344 487.03125 248.722656 C 486.476562 249 485.921875 249.277344 485.410156 249.554688 C 484.902344 249.878906 484.394531 250.203125 483.882812 250.574219 C 483.375 250.945312 482.914062 251.363281 482.449219 251.734375 C 472.679688 260.675781 471.988281 275.921875 477.355469 287.554688 C 472.402344 284.867188 467.3125 284.078125 460.832031 283.984375 C 452.035156 283.707031 442.960938 286.394531 436.480469 292.421875 C 435.507812 293.300781 434.582031 294.273438 433.75 295.292969 C 433.332031 295.804688 432.960938 296.3125 432.546875 296.820312 C 432.40625 296.960938 432.453125 297.191406 432.546875 297.332031 C 432.683594 297.515625 438.378906 293.578125 441.25 292.375 C 439.351562 294.320312 437.871094 296.820312 437.082031 299.417969 C 437.035156 299.511719 437.082031 299.601562 437.175781 299.695312 C 437.269531 299.789062 440 297.007812 441.433594 295.988281 C 443.054688 294.828125 444.765625 293.902344 446.664062 293.300781 C 445.042969 295.109375 443.703125 297.285156 443.191406 299.601562 C 443.148438 299.695312 443.191406 299.835938 443.285156 299.925781 C 443.703125 299.878906 447.730469 296.359375 449.535156 295.757812 C 449.394531 296.082031 449.257812 296.453125 449.117188 296.777344 L 448.65625 298.167969 C 448.46875 298.816406 448.285156 299.554688 448.101562 300.25 C 448.007812 300.714844 447.824219 301.875 447.730469 302.335938 C 447.960938 301.917969 448.515625 300.898438 448.75 300.53125 C 449.117188 299.972656 449.535156 299.371094 449.90625 298.816406 L 450.738281 297.75 C 452.730469 295.570312 454.765625 294.414062 456.386719 293.902344 C 454.164062 296.265625 452.453125 299.140625 451.339844 302.152344 C 453.238281 299.648438 455.507812 297.5625 458.191406 296.082031 C 456.988281 297.609375 455.277344 301.269531 455.367188 301.410156 C 455.554688 301.550781 459.949219 297.886719 461.988281 296.960938 C 460.460938 298.628906 459.117188 300.4375 458.054688 302.382812 C 460.183594 300.113281 462.589844 298.304688 465.226562 296.914062 C 465.226562 296.914062 465.226562 296.914062 465.226562 296.960938 C 464.257812 298.535156 463.65625 300.296875 463.515625 302.011719 C 466.0625 298.445312 470.691406 297.007812 474.8125 297.703125 C 474.300781 298.027344 473.839844 298.398438 473.375 298.769531 C 468.886719 300.621094 464.949219 303.542969 462.359375 307.574219 C 459.671875 311.976562 457.730469 316.839844 456.847656 322.03125 C 455.644531 329.539062 456.570312 337.460938 458.515625 345.015625 C 458.5625 345.152344 458.699219 345.292969 458.886719 345.292969 C 459.070312 345.292969 459.164062 342.652344 459.164062 341.492188 C 459.394531 342.234375 459.71875 342.976562 460.136719 343.71875 C 460.183594 343.808594 460.320312 343.808594 460.320312 343.671875 C 460.414062 341.121094 460.414062 338.804688 460.320312 336.351562 C 461.292969 338.714844 462.773438 340.984375 464.488281 342.882812 C 462.636719 339.128906 461.847656 335.050781 462.496094 331.253906 C 463.5625 333.707031 465.226562 336.117188 467.21875 337.925781 C 467.3125 337.925781 466.476562 334.265625 466.0625 332.78125 C 465.597656 331.253906 464.582031 328.007812 464.164062 326.480469 C 465.460938 329.027344 467.3125 331.53125 469.765625 333.105469 C 469.765625 333.105469 467.726562 330.046875 467.035156 328.472656 C 466.664062 327.683594 466.386719 326.894531 466.109375 326.0625 C 465.832031 325.273438 465.644531 324.441406 465.460938 323.605469 C 465.183594 322.261719 465.226562 320.917969 465.089844 319.574219 C 465.96875 323.1875 467.726562 326.804688 470.042969 329.769531 C 469.117188 327.824219 468.515625 325.832031 468.144531 323.839844 C 469.300781 325.042969 470.550781 326.015625 471.847656 326.941406 C 471.941406 326.988281 472.035156 327.035156 472.171875 326.988281 C 472.359375 326.941406 470.921875 323.558594 470.503906 322.078125 C 470.042969 320.640625 469.71875 319.296875 469.671875 318.09375 C 470.460938 320.085938 471.988281 321.9375 473.652344 323.28125 C 471.523438 320.59375 470.597656 317.304688 471.292969 314.246094 C 472.359375 316.46875 474.117188 318.648438 476.199219 319.851562 C 474.671875 317.441406 474.441406 314.710938 475.042969 312.300781 C 476.015625 314.199219 477.3125 315.914062 478.746094 317.351562 C 478.976562 317.582031 479.347656 317.351562 479.207031 317.074219 C 478.421875 315.171875 477.773438 313.273438 477.589844 311.464844 C 478.328125 312.808594 479.207031 314.058594 480.226562 315.171875 C 479.578125 312.671875 479.488281 310.308594 479.996094 308.082031 C 480.320312 309.425781 480.78125 310.722656 481.292969 311.929688 C 481.570312 307.386719 483.050781 303.355469 485.734375 300.066406 C 485.828125 299.972656 485.921875 299.878906 485.96875 299.789062 C 497.632812 334.402344 507.539062 362.761719 507.445312 402.660156 C 507.445312 402.660156 509.621094 402.753906 515.917969 402.660156 C 515.316406 362.996094 504.625 335.886719 488.792969 297.839844 C 488.835938 297.839844 488.835938 297.839844 488.882812 297.886719 C 489.117188 297.980469 489.347656 298.121094 489.578125 298.257812 L 490.273438 298.722656 C 490.6875 299.046875 491.246094 299.511719 491.613281 299.878906 C 491.800781 300.066406 492.078125 300.34375 492.261719 300.53125 C 493.144531 301.410156 493.882812 302.429688 494.714844 303.496094 C 494.808594 303.632812 494.996094 303.542969 494.902344 303.402344 C 494.300781 301.875 493.511719 300.25 492.539062 298.859375 C 492.449219 298.769531 492.402344 298.628906 492.308594 298.535156 C 494.53125 299.554688 496.523438 301.222656 498.1875 303.355469 C 497.539062 300.898438 496.429688 298.492188 494.949219 296.359375 C 495.78125 296.867188 496.570312 297.515625 497.355469 298.257812 C 497.585938 298.535156 497.863281 298.769531 498.097656 299.046875 C 498.328125 299.324219 498.558594 299.601562 498.789062 299.925781 C 499.023438 300.203125 499.253906 300.53125 499.484375 300.808594 C 499.484375 300.808594 500.179688 301.734375 500.179688 301.734375 C 500.316406 301.917969 500.550781 301.78125 500.457031 301.59375 C 500.226562 300.855469 499.992188 300.066406 499.671875 299.324219 C 499.53125 298.953125 499.347656 298.582031 499.160156 298.210938 C 498.976562 297.839844 498.746094 297.472656 498.558594 297.101562 C 498.464844 296.960938 498.375 296.777344 498.28125 296.636719 C 500.039062 297.054688 501.660156 297.886719 503.09375 299.417969 C 504.023438 300.390625 504.855469 301.59375 505.503906 302.847656 C 505.269531 302.152344 505.085938 301.457031 504.761719 300.761719 C 503.835938 298.582031 502.355469 296.636719 500.503906 295.246094 C 503.789062 297.191406 506.613281 300.203125 508.835938 303.679688 C 508.417969 301.78125 507.816406 299.835938 506.984375 297.980469 C 508.511719 299.511719 509.855469 301.269531 511.152344 303.03125 C 511.335938 303.261719 511.289062 300.808594 511.011719 299.835938 C 512.078125 301.039062 514.34375 304.515625 514.34375 304.191406 C 514.390625 303.261719 514.296875 302.242188 514.113281 301.269531 C 516.429688 302.9375 518.558594 304.886719 520.222656 307.527344 C 519.808594 305.257812 518.882812 302.847656 517.722656 300.714844 C 521.058594 302.613281 523.835938 305.765625 525.871094 309.425781 C 525.316406 307.480469 524.574219 305.535156 523.558594 303.679688 C 525.5 305.023438 529.527344 307.804688 530.085938 307.988281 C 528.140625 338.945312 523.558594 371.84375 518.742188 402.660156 L 529.804688 402.660156 C 533.371094 371.242188 536.75 339.039062 537.304688 307.203125 C 537.582031 291.308594 537.121094 275.367188 535.917969 259.566406 C 535.363281 252.199219 534.621094 244.875 533.742188 237.554688 C 535.871094 240.660156 536.796875 244.738281 536.289062 248.398438 C 537.582031 245.476562 538.183594 242.09375 537.722656 238.851562 C 541.054688 241.816406 543.140625 246.636719 541.933594 251.222656 C 543.230469 249.925781 544.25 248.210938 544.898438 246.265625 C 545.59375 249.417969 545.777344 252.707031 545.40625 255.996094 C 546.242188 253.773438 546.84375 251.410156 547.121094 249 C 547.8125 251.316406 547.769531 257.433594 547.90625 257.527344 C 548.09375 257.617188 548.324219 257.527344 548.417969 257.339844 C 549.296875 255.535156 550.035156 253.585938 550.453125 251.546875 C 551.054688 254.839844 550.914062 258.128906 550.175781 261.464844 C 551.839844 258.5 553 255.070312 553.414062 251.640625 C 553.695312 252.105469 554.015625 252.523438 554.296875 252.9375 C 554.574219 254.886719 554.480469 256.878906 554.15625 258.964844 L 553.878906 260.398438 C 553.695312 261.09375 553.460938 261.835938 553.277344 262.53125 C 553.089844 262.996094 552.675781 264.152344 552.488281 264.617188 C 552.8125 264.246094 553.648438 263.226562 553.925781 262.855469 C 554.339844 262.253906 554.851562 261.605469 555.265625 260.957031 L 556.054688 259.613281 C 556.238281 259.289062 556.425781 258.917969 556.609375 258.59375 C 557.398438 260.492188 557.257812 266.144531 557.351562 266.609375 C 557.488281 266.746094 557.722656 266.703125 557.859375 266.5625 C 559.433594 264.523438 560.222656 261.929688 560.636719 259.332031 C 562.164062 263.132812 562.441406 267.210938 561.75 271.289062 C 561.75 271.382812 561.792969 271.519531 561.886719 271.566406 C 562.027344 271.660156 564.203125 267.8125 564.710938 265.730469 C 564.894531 264.894531 565.035156 264.058594 565.128906 263.179688 C 566.144531 266.421875 566.746094 273.792969 566.980469 273.839844 C 567.210938 273.882812 567.441406 273.746094 567.488281 273.511719 C 568.878906 268.046875 568.644531 262.066406 567.027344 256.460938 C 564.988281 249.417969 560.824219 243.300781 555.777344 238.0625 C 556.425781 236.71875 556.796875 235.285156 556.75 233.847656 C 556.75 233.847656 556.75 233.800781 556.75 233.800781 C 558.691406 235.792969 560.175781 238.109375 560.960938 240.75 C 561.101562 237.925781 560.589844 235.191406 559.480469 232.597656 C 562.164062 234.589844 563.601562 237.367188 564.433594 240.382812 C 564.574219 238.0625 564.386719 235.746094 563.507812 233.617188 C 566.285156 235.933594 567.859375 239.035156 568.367188 242.464844 C 569.246094 238.945312 569.109375 235.328125 567.765625 232.273438 C 569.988281 233.941406 571.285156 236.164062 571.839844 238.710938 L 572.070312 239.917969 C 572.117188 240.519531 572.164062 241.167969 572.210938 241.769531 C 572.210938 242.1875 572.117188 243.300781 572.117188 243.71875 C 572.347656 243.300781 572.859375 242.140625 573.089844 241.726562 C 573.320312 241.074219 573.644531 240.335938 573.878906 239.6875 L 574.246094 238.296875 C 574.433594 237.507812 574.570312 236.71875 574.617188 235.933594 C 576.65625 237.738281 578.183594 239.917969 578.414062 242.605469 C 579.15625 240.101562 578.738281 237.601562 577.8125 235.421875 C 582.210938 237.691406 585.078125 241.261719 585.402344 245.710938 C 586.421875 240.195312 583.828125 235.609375 579.523438 231.945312 Z M 527.492188 234.773438 Z M 503.003906 220.410156 C 506.84375 217.488281 512.121094 217.722656 516.148438 220.039062 C 515.917969 220.085938 515.6875 220.175781 515.410156 220.222656 C 511.335938 219.527344 507.125 219.480469 503.003906 220.410156 Z M 510.039062 234.773438 C 509.808594 235.421875 509.621094 236.070312 509.4375 236.765625 C 508.882812 237.230469 508.328125 237.691406 507.769531 238.203125 C 506.476562 239.40625 505.269531 240.75 504.113281 242.1875 C 504.949219 238.851562 507.261719 236.347656 510.039062 234.773438 Z M 504.949219 259.148438 C 505.269531 261.882812 505.875 264.710938 506.84375 267.164062 C 505.503906 267.722656 504.207031 268.371094 502.910156 269.109375 C 503.050781 265.542969 503.652344 262.113281 504.949219 259.148438 Z M 501.566406 265.867188 C 501.707031 267.074219 501.890625 268.324219 502.167969 269.527344 C 501.335938 270.039062 500.503906 270.546875 499.714844 271.105469 C 500.363281 269.296875 501.105469 267.210938 501.566406 265.867188 Z M 495.875 274.070312 C 496.476562 272.214844 497.125 270.410156 497.773438 268.601562 C 497.816406 269.851562 497.957031 271.105469 498.097656 272.308594 C 497.308594 272.863281 496.570312 273.421875 495.875 274.070312 Z M 530.039062 307.203125 C 530.039062 307.527344 529.992188 307.851562 529.992188 308.128906 C 529.296875 306.644531 528.511719 305.257812 527.675781 303.867188 C 528.511719 304.421875 529.34375 305.023438 530.128906 305.582031 C 530.085938 306.136719 530.085938 306.644531 530.039062 307.203125 Z M 530.269531 302.335938 C 527.261719 298.953125 523.882812 295.988281 520.269531 293.53125 C 519.667969 293.113281 519.019531 292.746094 518.417969 292.328125 C 517.769531 291.957031 517.121094 291.585938 516.519531 291.261719 C 512.910156 289.363281 509.019531 288.109375 505.226562 287.691406 C 502.910156 287.414062 500.640625 287.460938 498.421875 287.785156 C 498.1875 287.832031 497.957031 287.878906 497.726562 287.925781 C 500.273438 286.441406 503.417969 285.933594 506.242188 287 C 505.269531 285.699219 503.882812 284.679688 502.308594 283.941406 C 505.039062 283.617188 507.816406 283.707031 510.59375 284.355469 C 508.789062 283.429688 506.84375 282.6875 504.808594 282.226562 C 506.84375 281.855469 511.984375 282.410156 512.121094 282.273438 C 512.214844 282.132812 512.167969 281.902344 512.03125 281.808594 C 510.59375 280.835938 508.976562 280.046875 507.261719 279.492188 C 510.085938 279.257812 512.863281 279.675781 515.59375 280.601562 C 513.234375 278.84375 510.410156 277.5 507.539062 276.851562 C 507.957031 276.664062 508.328125 276.386719 508.742188 276.203125 C 510.410156 276.109375 512.121094 276.386719 513.835938 276.851562 L 515.039062 277.21875 C 515.59375 277.453125 516.242188 277.730469 516.796875 277.960938 C 517.167969 278.148438 518.140625 278.65625 518.511719 278.84375 C 518.1875 278.519531 517.445312 277.683594 517.167969 277.40625 C 516.707031 276.988281 516.195312 276.480469 515.6875 276.0625 L 514.621094 275.226562 C 514.34375 275.042969 514.066406 274.855469 513.789062 274.671875 C 515.457031 274.164062 520.222656 274.765625 520.640625 274.71875 C 520.78125 274.578125 520.734375 274.394531 520.640625 274.253906 C 519.066406 272.679688 516.890625 271.707031 514.761719 271.148438 C 518.09375 270.128906 521.566406 270.269531 524.992188 271.242188 C 525.085938 271.242188 525.175781 271.242188 525.222656 271.148438 C 525.316406 271.058594 522.261719 268.785156 520.546875 268.136719 C 519.855469 267.90625 519.160156 267.675781 518.417969 267.535156 C 521.242188 266.933594 527.539062 267.027344 527.585938 266.839844 C 527.675781 266.65625 527.539062 266.421875 527.351562 266.332031 C 522.863281 264.617188 517.769531 264.292969 512.863281 265.21875 C 510.871094 265.589844 508.929688 266.191406 507.03125 266.980469 C 506.9375 263.457031 507.585938 260.261719 508.558594 257.25 C 509.019531 258.359375 509.53125 259.378906 510.179688 260.261719 C 510.363281 260.585938 510.226562 255.765625 510.457031 253.867188 C 510.828125 255.023438 512.308594 257.433594 512.308594 257.109375 C 512.402344 254.5625 512.445312 251.917969 512.863281 249.464844 C 513.28125 251.78125 513.972656 254.144531 514.761719 256.230469 C 514.53125 251.363281 515.222656 246.589844 516.9375 242.558594 C 516.148438 245.109375 516.011719 247.980469 516.566406 250.714844 C 516.707031 251.546875 516.984375 252.382812 517.214844 253.21875 C 517.03125 251.503906 516.984375 249.835938 517.261719 248.257812 C 517.585938 245.847656 518.558594 243.949219 519.855469 242.417969 C 519.855469 242.652344 519.855469 242.835938 519.898438 243.070312 C 519.945312 243.578125 519.992188 244.042969 520.039062 244.503906 C 520.132812 244.96875 520.222656 245.476562 520.316406 245.941406 C 520.5 246.867188 520.78125 247.796875 521.011719 248.675781 C 521.058594 248.90625 521.382812 248.90625 521.382812 248.628906 C 521.382812 248.582031 521.425781 247.285156 521.425781 247.238281 C 521.425781 246.777344 521.425781 246.359375 521.472656 245.894531 C 521.519531 245.476562 521.519531 245.015625 521.566406 244.597656 C 521.613281 244.179688 521.707031 243.761719 521.75 243.347656 C 521.984375 242.09375 522.261719 240.9375 522.675781 239.917969 C 522.632812 242.976562 523.1875 246.035156 524.113281 248.859375 C 524.296875 245.710938 525.039062 242.789062 526.382812 240.335938 C 526.382812 240.472656 526.382812 240.660156 526.382812 240.796875 C 526.335938 242.789062 526.660156 244.828125 527.074219 246.777344 C 527.121094 246.960938 527.308594 246.960938 527.308594 246.730469 C 527.351562 245.199219 527.398438 243.671875 527.628906 242.234375 C 527.675781 241.910156 527.722656 241.492188 527.816406 241.167969 C 527.910156 240.566406 528.140625 239.777344 528.324219 239.175781 L 528.648438 238.25 C 528.789062 237.972656 528.925781 237.691406 529.066406 237.414062 C 529.160156 237.277344 529.25 237.136719 529.34375 237 C 529.945312 244.644531 530.410156 252.335938 530.640625 259.980469 C 531.148438 274.207031 531.011719 288.296875 530.269531 302.335938 Z M 552.121094 234.960938 C 551.378906 234.308594 550.546875 233.707031 549.710938 233.105469 C 551.980469 234.03125 553.738281 235.46875 554.574219 237.324219 C 553.785156 236.488281 552.953125 235.699219 552.121094 234.960938 Z M 552.121094 234.960938 " fill-opacity="1" fill-rule="nonzero"/></g></svg>