<svg width="88" height="120" viewBox="0 0 88 120" fill="none" xmlns="http://www.w3.org/2000/svg">
<path d="M41.3341 46.074C40.5004 46.6716 39.6995 47.3069 38.9365 47.9849L41.6751 45.828C41.5614 45.9083 41.4478 45.9912 41.3341 46.074ZM42.289 43.4626C45.0655 41.6924 48.0492 40.3666 51.2173 39.5053L35.8013 0H34.0657L8.56947 65.3458C6.47005 70.7369 3.61777 73.8631 0 74.7269V76.8838C2.17016 76.6679 4.88096 76.5599 8.13746 76.5599C12.3287 76.5599 16.4897 76.6679 20.6127 76.8838V74.7269C17.4295 74.6566 15.0623 74.1167 13.506 73.1098C11.9498 72.1004 11.1742 70.4833 11.1742 68.2561C11.1742 66.2397 11.8967 63.2969 13.3443 59.4149L17.7908 47.9849H36.6375C37.3954 47.2241 38.1938 46.5034 39.0224 45.828H18.6598L31.0264 13.5869L42.289 43.4626ZM61.9468 67.9648L52.9756 44.9692C51.5709 45.6321 50.2421 46.5235 48.9764 47.6334C47.5894 48.8562 46.3186 50.3226 45.1742 52.01L50.3381 65.8078C51.2072 67.9648 51.6417 69.6522 51.6417 70.875C51.6417 72.3088 51.0455 73.3006 49.8505 73.8405C48.658 74.3804 46.6875 74.7193 43.9388 74.865V77.0219C46.9755 76.806 51.6038 76.698 57.8237 76.698C62.6693 76.698 66.5423 76.806 69.4324 77.0219V74.865C66.1785 74.7193 63.6824 72.4168 61.9468 67.9648Z" fill="#535353"/>
<path d="M87.5657 92.1959C87.5657 104.557 87.7122 113.185 88.0002 118.074H85.5875C85.3703 115.766 85.0595 114.127 84.6629 113.155C84.2662 112.181 83.7003 111.694 82.9753 111.694C82.3942 111.694 81.6338 111.98 80.6914 112.56C77.4273 114.868 74.3098 116.615 71.3362 117.803C68.3602 118.993 64.7702 119.588 60.5638 119.588C53.6718 119.588 47.6338 118.036 42.4496 114.938C37.2655 111.839 33.241 107.352 30.3735 101.476C27.5061 95.5982 26.0762 88.5926 26.0762 80.4445C26.0762 72.2963 27.544 65.484 30.4822 59.3572C32.2557 55.6636 34.4486 52.4646 37.0684 49.7653C37.5762 49.2355 38.1093 48.7232 38.6575 48.2361C38.751 48.1507 38.8445 48.0678 38.938 47.985C39.7009 47.307 40.5018 46.6717 41.3355 46.0741C41.4492 45.9913 41.5629 45.9084 41.6766 45.828C41.9949 45.6021 42.3183 45.3811 42.6467 45.1702C42.6795 45.1476 42.7149 45.1225 42.7477 45.1024C42.7578 45.0948 42.7654 45.0898 42.7755 45.0848C45.5293 43.3095 48.4725 42.0013 51.6103 41.1651C51.6406 41.1551 51.6734 41.1476 51.7037 41.14C52.1686 41.0095 52.6436 40.8915 53.1236 40.796C55.5262 40.2612 58.0399 40.0026 60.6724 40.0026C65.0253 40.0026 68.724 40.6127 71.7708 41.8406C74.8176 43.0685 77.7911 44.796 80.6914 47.0308C81.4923 47.6786 82.1769 48.0026 82.758 48.0026C84.2107 48.0026 85.153 45.8406 85.5875 41.5167H88.0002C87.7122 46.1896 87.5657 54.4558 87.5657 66.3152H85.2717C84.4683 61.602 83.7407 58.2147 83.0839 56.1482C82.427 54.0842 81.3331 52.1105 79.8021 50.2223C77.6143 47.3949 74.8226 45.2756 71.4322 43.8619C68.0418 42.4483 64.3761 41.7427 60.4374 41.7427C58.1283 41.7427 55.9683 42.1118 53.9446 42.85C53.4621 43.0258 52.9871 43.2267 52.5172 43.4501C52.1181 43.636 51.7265 43.8368 51.34 44.0528C51.244 44.1055 51.1479 44.1608 51.0519 44.2185C50.9837 44.2562 50.918 44.2963 50.8498 44.339C49.8671 44.9266 48.9247 45.6221 48.0203 46.4181C46.8076 47.4803 45.691 48.6981 44.6728 50.0741C44.6324 50.1268 44.5945 50.1771 44.5566 50.2298C44.1853 50.7295 43.829 51.2518 43.4905 51.7891C42.0302 54.0791 40.7898 56.7257 39.7616 59.7389C37.791 65.5016 36.8057 72.2587 36.8057 80.0176C36.8057 87.7765 37.8617 94.6968 39.9788 100.352C42.0959 106.004 45.0291 110.3 48.7858 113.235C52.545 116.171 56.7893 117.64 61.5314 117.64C65.1795 117.64 68.7139 116.949 72.1447 115.573C75.573 114.197 78.2711 112.133 80.2392 109.376C81.6994 107.347 82.7555 105.173 83.4123 102.85C84.0692 100.53 84.6856 96.9793 85.2717 92.1959H87.5657Z" fill="#535353"/>
</svg>
