<svg xmlns="http://www.w3.org/2000/svg" xmlns:xlink="http://www.w3.org/1999/xlink" width="940" zoomAndPan="magnify" viewBox="0 0 705 591.000005" height="788" preserveAspectRatio="xMidYMid meet" version="1.0"><defs><clipPath id="ccd7af340d"><path d="M 230 178 L 475 178 L 475 412.851562 L 230 412.851562 Z M 230 178 " clip-rule="nonzero"/></clipPath></defs><g clip-path="url(#ccd7af340d)"><path fill="#000000" d="M 461.15625 300.316406 L 451.171875 300.316406 L 451.171875 402.5 C 451.128906 403.1875 451.019531 403.867188 450.84375 404.535156 C 450.667969 405.203125 450.429688 405.847656 450.128906 406.46875 C 449.824219 407.089844 449.464844 407.675781 449.050781 408.226562 C 448.632812 408.777344 448.167969 409.28125 447.652344 409.742188 C 447.136719 410.199219 446.582031 410.605469 445.984375 410.957031 C 445.390625 411.308594 444.765625 411.601562 444.113281 411.828125 C 443.460938 412.058594 442.792969 412.222656 442.109375 412.324219 C 441.425781 412.421875 440.738281 412.457031 440.046875 412.421875 L 381.074219 412.421875 L 381.074219 342.75 C 381.074219 342.269531 381.027344 341.796875 380.933594 341.328125 C 380.839844 340.859375 380.703125 340.40625 380.519531 339.964844 C 380.335938 339.523438 380.113281 339.101562 379.847656 338.707031 C 379.582031 338.308594 379.277344 337.941406 378.941406 337.601562 C 378.601562 337.265625 378.234375 336.960938 377.835938 336.699219 C 377.4375 336.433594 377.019531 336.207031 376.574219 336.023438 C 376.132812 335.839844 375.675781 335.703125 375.207031 335.609375 C 374.738281 335.515625 374.265625 335.46875 373.785156 335.46875 L 331 335.46875 C 330.519531 335.46875 330.046875 335.515625 329.578125 335.609375 C 329.105469 335.703125 328.652344 335.839844 328.210938 336.023438 C 327.765625 336.207031 327.347656 336.429688 326.949219 336.695312 C 326.550781 336.960938 326.183594 337.261719 325.84375 337.601562 C 325.503906 337.9375 325.203125 338.308594 324.9375 338.703125 C 324.671875 339.101562 324.445312 339.523438 324.265625 339.964844 C 324.082031 340.40625 323.941406 340.859375 323.851562 341.328125 C 323.757812 341.796875 323.710938 342.269531 323.710938 342.75 L 323.710938 412.417969 L 264.734375 412.417969 C 264.046875 412.453125 263.359375 412.421875 262.675781 412.324219 C 261.996094 412.226562 261.328125 412.0625 260.679688 411.835938 C 260.027344 411.605469 259.40625 411.316406 258.8125 410.96875 C 258.21875 410.617188 257.664062 410.214844 257.152344 409.753906 C 256.636719 409.296875 256.171875 408.792969 255.757812 408.242188 C 255.34375 407.695312 254.984375 407.109375 254.683594 406.492188 C 254.386719 405.871094 254.148438 405.230469 253.972656 404.5625 C 253.800781 403.898438 253.691406 403.222656 253.652344 402.535156 L 253.652344 300.316406 L 243.625 300.316406 C 232.515625 300.316406 226.492188 289.875 233.773438 283.171875 L 343.496094 181.917969 C 344.183594 181.335938 344.914062 180.820312 345.695312 180.371094 C 346.472656 179.921875 347.28125 179.539062 348.128906 179.234375 C 348.972656 178.925781 349.835938 178.691406 350.722656 178.535156 C 351.609375 178.382812 352.5 178.304688 353.398438 178.304688 C 354.300781 178.308594 355.191406 178.386719 356.078125 178.546875 C 356.960938 178.707031 357.828125 178.941406 358.671875 179.253906 C 359.511719 179.566406 360.324219 179.949219 361.097656 180.402344 C 361.875 180.855469 362.605469 181.375 363.289062 181.957031 C 399.210938 215.707031 435.144531 249.457031 471.097656 283.207031 C 478.242188 289.972656 472.226562 300.316406 461.15625 300.316406 Z M 461.15625 300.316406 " fill-opacity="1" fill-rule="nonzero"/></g></svg>