<svg width="1920" height="1080" viewBox="0 0 1920 1080" fill="none" xmlns="http://www.w3.org/2000/svg">
<g clip-path="url(#clip0_3802_3655)">
<rect width="1920" height="1080" fill="#00B5F9"/>
<ellipse cx="960" cy="-99.2188" rx="1161.22" ry="435.337" fill="#12BBFA"/>
<ellipse cx="945.41" cy="1033.45" rx="1383.64" ry="367.794" fill="#77C801"/>
<path d="M1063.1 417.294C1060.81 413.539 1065.62 415.615 1060.64 408.798L1059.62 406.958L1056.2 400.774C1055.15 400.112 1054.1 399.493 1053.04 398.904C1052.88 398.816 1052.72 398.713 1052.56 398.625C1051.49 398.036 1050.43 397.491 1049.35 396.961C1044.66 394.664 1039.87 392.794 1034.74 390.482C1034.3 390.276 1033.84 390.07 1033.38 389.864C1033.12 389.746 1032.84 389.614 1032.57 389.481C1032.17 389.29 1031.77 389.098 1031.36 388.907C1030.99 388.73 1030.62 388.554 1030.26 388.362C1029.92 388.186 1029.56 388.024 1029.22 387.847C1028.53 387.494 1027.82 387.126 1027.11 386.757C1026.86 386.625 1026.61 386.478 1026.36 386.345C1025.83 386.065 1025.31 385.771 1024.78 385.462C1024.5 385.3 1024.21 385.138 1023.93 384.961C1023.4 384.652 1022.85 384.328 1022.31 383.989C1022.04 383.827 1021.79 383.68 1021.52 383.504C1020.71 383.003 1019.9 382.488 1019.08 381.943C994.858 365.909 972.867 336.227 968.93 304.88C966.717 287.256 970.242 269.309 978.31 252.494C989.165 228.834 982.646 207.146 982.646 207.146C982.631 207.058 980.729 199.667 977.041 194.19C973.605 189.095 976.54 186.224 976.982 185.827C972.572 185.724 967.72 185.694 962.352 185.694C954.461 185.694 947.883 185.679 942.234 185.782C942.234 185.782 945.936 188.698 942.234 194.19C938.517 199.696 936.615 207.146 936.615 207.146C936.615 207.146 930.096 228.834 940.951 252.494C949.033 269.309 952.544 287.271 950.331 304.88C946.393 336.227 924.403 365.909 900.185 381.943C896.557 384.343 893.15 386.257 889.89 387.906C889.492 385.771 890.274 382.812 892.678 378.807C887.118 383.636 866.514 409.49 862.148 414.305C862.148 414.32 862.045 414.128 862.015 414.114L860.584 411.831L858.711 408.033C858.711 408.033 858.225 406.796 858.21 406.811C857.9 406.973 856.809 407.93 856.809 407.93C850.423 415.674 860.702 414.923 858.623 418.015C830.88 459.197 829.804 505.885 835.113 541.177C836.514 550.467 838.358 558.978 840.261 566.383C844.272 581.902 848.608 592.606 849.847 595.624L878.888 679.003C886.233 675.028 896.955 672.51 908.887 672.51C922.146 672.51 933.886 675.602 941.187 680.358L949.432 666.076C953.487 659.038 963.694 659.171 967.587 666.282L975.906 681.521C983 676.103 995.551 672.495 1009.86 672.495C1022.97 672.495 1034.62 675.528 1041.94 680.196L1048.38 658.832C1050.89 657.742 1057.2 655.504 1060.74 658.611C1064.03 661.512 1067.39 662.586 1070.48 662.586C1073.23 662.586 1075.74 661.703 1077.73 660.466C1075.93 658.626 1074.72 656.285 1074.25 653.752C1072.88 654.842 1069.74 656.461 1065.74 652.943C1061.27 648.997 1055.53 649.07 1051.04 650.057L1067.47 595.595C1069.06 591.678 1073.29 581.166 1077.32 566.354C1079.24 559.316 1081.09 551.307 1082.6 542.576C1082.69 542.016 1082.79 541.471 1082.88 540.912C1088.72 505.723 1088.6 459.256 1063.1 417.22V417.294Z" fill="white"/>
<path d="M1107.39 635.466C1106.73 635.834 1105.73 635.804 1104.64 636.379C1090.08 643.976 1075.09 639.574 1074.06 650.219C1073.94 651.441 1074 652.648 1074.22 653.826C1074.7 656.358 1075.92 658.685 1077.7 660.54C1078.46 661.32 1079.31 662.027 1080.27 662.601C1082.84 664.147 1086.26 665.06 1090.51 663.676C1099.43 660.746 1109.83 645.61 1109.84 636.997C1109.84 635.746 1108.47 634.862 1107.38 635.481L1107.39 635.466Z" fill="#FD7F0E"/>
<path d="M998.533 209.032C998.533 209.032 997.117 232.501 1030.21 221.281C1030.21 221.281 1070.39 209.032 1076.51 168.719C1076.51 168.719 1045.74 199.123 1021.51 195.147C997.279 191.172 998.533 209.032 998.533 209.032Z" fill="#F4EDBB"/>
<path d="M928.415 209.032C928.415 209.032 929.831 232.501 896.735 221.281C896.735 221.281 856.559 209.032 850.438 168.719C850.438 168.719 881.189 199.123 905.436 195.147C929.669 191.172 928.415 209.032 928.415 209.032Z" fill="#F4EDBB"/>
<path d="M977.028 194.22C980.715 199.697 982.617 207.088 982.632 207.177C982.632 207.177 989.151 228.864 978.296 252.525C970.214 269.339 966.703 287.302 968.916 304.911C972.854 336.257 994.844 365.94 1019.06 381.973C1019.89 382.518 1020.7 383.034 1021.51 383.534C1021.78 383.696 1022.04 383.858 1022.29 384.02C1022.84 384.359 1023.38 384.683 1023.91 384.992C1024.21 385.154 1024.49 385.33 1024.77 385.492C1025.3 385.802 1025.83 386.081 1026.35 386.376C1026.6 386.508 1026.85 386.656 1027.1 386.788C1027.81 387.171 1028.52 387.524 1029.21 387.878C1029.56 388.054 1029.9 388.216 1030.24 388.393C1030.61 388.57 1030.98 388.761 1031.35 388.938C1031.75 389.129 1032.16 389.32 1032.56 389.512C1032.84 389.644 1033.1 389.762 1033.37 389.895C1033.83 390.101 1034.27 390.307 1034.72 390.513C1037.07 388.761 1037.69 385.86 1035.6 381.34C1040.88 386.597 1045.45 391.956 1049.34 396.991C1050.4 397.521 1051.48 398.066 1052.54 398.655C1052.7 398.743 1052.87 398.832 1053.03 398.935C1054.08 399.524 1055.12 400.128 1056.18 400.805L1060.2 403.941C1065.26 391.514 1098.82 307.885 1056.13 237.522C1052.1 230.881 1043.62 217.041 1030.48 203.967C1028.88 202.377 1027.22 200.801 1025.49 199.256C1014.27 189.229 1003.49 186.476 976.954 185.901C976.511 186.299 973.562 189.17 977.013 194.264L977.028 194.22Z" fill="#FD7F0E"/>
<path d="M1056.2 400.775C1055.15 400.113 1054.11 399.494 1053.04 398.905C1054.09 399.494 1055.14 400.098 1056.2 400.775Z" fill="white"/>
<path d="M1035.61 381.325C1037.7 385.845 1037.09 388.746 1034.74 390.498C1039.87 392.809 1044.67 394.665 1049.36 396.976C1045.46 391.941 1040.89 386.581 1035.61 381.325Z" fill="white"/>
<path d="M1059.62 406.959L1060.64 408.799C1065.62 415.616 1060.81 413.54 1063.1 417.295C1088.6 459.345 1088.72 505.797 1082.88 540.987C1094.52 534.7 1111.05 541.561 1111.05 541.561C1123.9 464.925 1063.71 410.552 1059.63 406.974L1059.62 406.959Z" fill="white"/>
<path d="M1082.88 540.987C1082.79 541.546 1082.69 542.106 1082.6 542.651C1081.1 551.382 1079.22 559.391 1077.32 566.429C1083.91 569.329 1107.26 576.912 1111.05 541.546C1111.05 541.546 1094.52 534.685 1082.88 540.972V540.987Z" fill="#FD7F0E"/>
<path d="M806.519 541.546C810.324 576.956 833.715 569.3 840.279 566.414C838.361 559.008 836.532 550.512 835.131 541.207C823.48 534.493 806.519 541.546 806.519 541.546Z" fill="#FD7F0E"/>
<path d="M858.64 418.061C860.719 414.969 850.439 415.72 856.825 407.976C847.622 416.442 794.364 469.034 806.532 541.561C806.532 541.561 823.493 534.524 835.145 541.223C829.835 505.931 830.912 459.243 858.654 418.061H858.64Z" fill="white"/>
<path d="M878.905 679.048L881.501 686.512C883.683 692.77 889.598 696.966 896.235 696.966H922.65C928.225 696.966 933.372 693.992 936.16 689.163L941.204 680.417C933.903 675.661 922.163 672.569 908.904 672.569C896.972 672.569 886.25 675.072 878.905 679.062V679.048Z" fill="#FD7F0E"/>
<path d="M1040.24 685.879L1041.94 680.255C1034.62 675.573 1022.99 672.555 1009.86 672.555C995.553 672.555 983.002 676.162 975.908 681.58L979.875 688.854C982.604 693.859 987.854 696.966 993.562 696.966H1025.3C1032.17 696.966 1038.25 692.461 1040.23 685.894L1040.24 685.879Z" fill="#FD7F0E"/>
<mask id="mask0_3802_3655" style="mask-type:luminance" maskUnits="userSpaceOnUse" x="832" y="361" width="255" height="321">
<path d="M1063.1 417.294C1058.78 410.183 1049.71 395.341 1035.61 381.325C1040.3 391.44 1031.46 393.501 1019.86 392.559L1004.34 429.073L979.534 433.711C979.578 433.608 979.622 433.519 979.666 433.416C991.303 408.062 984.312 384.814 984.312 384.814C984.283 384.726 982.262 376.79 978.295 370.93C974.608 365.468 977.749 362.39 978.236 361.963C973.501 361.86 968.31 361.816 962.558 361.816C954.092 361.816 947.042 361.801 941.01 361.905C941.01 361.905 944.977 365.026 941.01 370.915C937.028 376.819 934.992 384.799 934.992 384.799C934.992 384.799 928.001 408.048 939.638 433.402C939.682 433.505 939.727 433.593 939.771 433.696L913.061 393.957L899.521 392.735C891.188 392.662 886.365 389.349 892.693 378.822C874.33 394.738 862.531 412.259 858.637 418.045C808.27 492.811 845.776 585.716 849.862 595.654L878.902 679.033C886.247 675.057 896.97 672.54 908.901 672.54C922.161 672.54 933.901 675.632 941.201 680.387L949.446 666.106C953.502 659.068 963.708 659.2 967.602 666.312L975.92 681.55C983.014 676.132 995.566 672.525 1009.87 672.525C1022.98 672.525 1034.64 675.558 1041.95 680.225L1067.48 595.624C1072.91 582.314 1108.88 492.663 1063.12 417.25L1063.1 417.294Z" fill="white"/>
</mask>
<g mask="url(#mask0_3802_3655)">
<path d="M802.549 580.696C829.112 561.026 841.102 560.672 847.09 564.397C856.795 570.434 851.382 587.528 864.73 597.864C875.379 606.109 884.877 599.925 891.189 607.552C900.879 619.257 890.998 648.851 878.845 651.001C868.447 652.841 860.733 633.833 851.5 636.174C843.978 638.088 841.206 652.738 840.026 664.355" fill="#FD7F0E"/>
<path d="M1039.18 572.141C1042.43 569.564 1049.4 564.028 1055.29 566.178C1061.44 568.43 1060.26 576.867 1066.82 579.502C1073.03 581.991 1077.19 575.66 1083.54 578.015C1089.53 580.239 1094.44 589.028 1091.91 595.963C1088.68 604.827 1075.45 604.709 1073.44 604.694C1064.45 604.606 1062.23 596.434 1055.95 597.553C1049.78 598.658 1049.77 606.019 1042.93 607.933C1036.95 609.597 1029.08 606.196 1026.08 600.807C1020.77 591.281 1031.97 577.853 1039.17 572.141H1039.18Z" fill="#FD7F0E"/>
<path d="M785.47 500.628C785.087 454.956 839.215 406.619 888.845 412.626C910.467 415.247 939.507 429.161 936.381 442.633C924.965 491.912 894.641 445.99 861.353 493.914C844.967 517.516 840.823 549.922 817.298 553.633C803.995 555.738 785.692 526.836 785.47 500.628Z" fill="#FD7F0E"/>
<path d="M1056.2 409.255C1052.85 409.947 981.953 428.646 979.652 473.965C978.03 505.885 1012.11 536.054 1043.68 539.837C1102.51 546.875 1158.2 462.893 1142.54 430.059C1131.64 407.223 1083.32 403.69 1056.18 409.255H1056.2Z" fill="#FD7F0E"/>
</g>
<path d="M878.905 679.048L881.501 686.512C883.683 692.77 889.598 696.966 896.235 696.966H922.65C928.225 696.966 933.372 693.992 936.16 689.163L941.204 680.417C933.903 675.661 922.163 672.569 908.904 672.569C896.972 672.569 886.25 675.072 878.905 679.062V679.048Z" fill="#FD7F0E"/>
<path d="M1040.24 685.879L1041.94 680.255C1034.62 675.573 1022.99 672.555 1009.86 672.555C995.553 672.555 983.002 676.162 975.908 681.58L979.875 688.854C982.604 693.859 987.854 696.966 993.562 696.966H1025.3C1032.17 696.966 1038.25 692.461 1040.23 685.894L1040.24 685.879Z" fill="#FD7F0E"/>
<path d="M940.952 252.524C940.79 252.156 940.627 251.788 940.465 251.42C939.418 249.02 938.533 246.635 937.81 244.309C937.456 243.175 937.147 242.056 936.866 240.937C936.394 239.067 935.996 237.241 935.701 235.46C935.657 235.18 935.613 234.9 935.568 234.635C935.509 234.253 935.436 233.855 935.391 233.472C935.377 233.34 935.362 233.222 935.347 233.104C935.023 230.704 934.831 228.407 934.743 226.243C934.728 225.845 934.713 225.448 934.713 225.05C934.639 221.9 934.772 219.058 935.008 216.614C935.273 213.728 935.686 211.402 936.011 209.782C936.085 209.444 936.144 209.134 936.217 208.855C936.306 208.487 936.38 208.192 936.439 207.942C936.468 207.824 936.498 207.736 936.512 207.647C936.542 207.53 936.571 207.441 936.586 207.368C936.616 207.264 936.63 207.191 936.63 207.191C936.63 207.191 938.533 199.741 942.25 194.234C945.952 188.742 942.25 185.827 942.25 185.827C919.566 186.225 912.265 188.536 897.177 201.625C880.054 216.467 869.036 232.824 865.408 238.213C818.418 307.958 853.417 394.65 857.223 403.926L863.078 400.789C874.42 393.59 885.614 391.661 900.215 381.988C924.433 365.954 946.424 336.271 950.362 304.925C952.574 287.301 949.049 269.353 940.981 252.539L940.952 252.524Z" fill="#FD7F0E"/>
<path d="M1015.79 332.613C1030.38 330.661 1040.28 314.652 1037.89 296.857C1035.51 279.061 1021.74 266.218 1007.14 268.17C992.543 270.122 982.646 286.13 985.034 303.926C987.422 321.721 1001.19 334.565 1015.79 332.613Z" fill="white" stroke="white" stroke-width="0.41" stroke-miterlimit="10"/>
<path d="M1013.89 318.443C1022.07 317.35 1027.61 308.381 1026.27 298.411C1024.94 288.442 1017.22 281.246 1009.04 282.34C1000.86 283.434 995.319 292.402 996.657 302.372C997.995 312.342 1005.71 319.537 1013.89 318.443Z" fill="#442106"/>
<path d="M1016.29 295.605C1018.34 295.605 1020.01 293.944 1020.01 291.895C1020.01 289.846 1018.34 288.185 1016.29 288.185C1014.24 288.185 1012.57 289.846 1012.57 291.895C1012.57 293.944 1014.24 295.605 1016.29 295.605Z" fill="white"/>
<path d="M935.543 303.896C937.931 286.101 928.034 270.092 913.437 268.14C898.84 266.188 885.071 279.032 882.683 296.827C880.295 314.623 890.192 330.631 904.789 332.583C919.386 334.535 933.155 321.692 935.543 303.896Z" fill="white" stroke="white" stroke-width="0.41" stroke-miterlimit="10"/>
<path d="M923.923 302.342C925.261 292.372 919.715 283.403 911.537 282.31C903.358 281.216 895.644 288.411 894.306 298.381C892.968 308.351 898.514 317.319 906.692 318.413C914.87 319.507 922.585 312.311 923.923 302.342Z" fill="#442106"/>
<path d="M914.125 295.605C916.178 295.605 917.842 293.944 917.842 291.895C917.842 289.846 916.178 288.185 914.125 288.185C912.072 288.185 910.408 289.846 910.408 291.895C910.408 293.944 912.072 295.605 914.125 295.605Z" fill="white"/>
<path d="M959.625 649.807C987.076 649.807 1009.33 631.251 1009.33 608.361C1009.33 585.47 987.076 566.914 959.625 566.914C932.175 566.914 909.922 585.47 909.922 608.361C909.922 631.251 932.175 649.807 959.625 649.807Z" fill="#F5C8A7"/>
<path d="M730.516 812.304L755.486 787.377C759.35 783.519 762.152 780.059 763.893 776.997C765.618 773.934 766.488 770.68 766.488 767.22C766.488 762.568 764.527 758.534 760.589 755.147C756.651 751.746 750.147 750.053 741.091 750.053L699.484 797.742V765.63C699.484 759.108 698.009 754.72 695.089 752.453C692.154 750.185 687.361 749.052 680.694 749.052C677.759 749.052 674.721 749.287 671.594 749.744C668.467 750.215 666.093 750.583 664.5 750.848V857.269C664.5 863.394 665.901 867.693 668.703 870.152C671.506 872.611 676.373 873.848 683.305 873.848C686.505 873.848 689.632 873.642 692.7 873.244C695.768 872.846 698.039 872.449 699.499 872.051V826.939L728.495 860.67C731.696 864.395 735.029 867.634 738.495 870.358C741.961 873.082 746.43 874.451 751.902 874.451C756.961 874.451 761.429 872.817 765.308 869.563C769.173 866.309 771.105 861.804 771.105 856.091C766.164 850.761 759.542 843.65 751.208 834.727C744.881 827.955 737.994 820.49 730.545 812.333L730.516 812.304Z" fill="white"/>
<path d="M868.285 844.695H822.49V765.63C822.49 759.108 821.015 754.72 818.094 752.453C815.159 750.185 810.366 749.052 803.7 749.052C800.765 749.052 797.726 749.287 794.6 749.744C791.473 750.215 789.098 750.583 787.505 750.848V854.28C787.505 860.008 789.172 864.528 792.505 867.855C795.838 871.183 800.366 872.846 806.104 872.846H860.114C863.845 872.846 866.78 871.654 868.919 869.254C871.058 866.854 872.12 863.203 872.12 858.27C872.12 855.473 871.721 852.882 870.925 850.482C870.128 848.082 869.258 846.153 868.329 844.695H868.285Z" fill="white"/>
<path d="M975.478 845.284H924.078V824.318H960.685C964.416 824.318 967.351 823.213 969.49 821.02C971.628 818.826 972.69 815.263 972.69 810.33C972.69 807.533 972.322 805.015 971.584 802.748C970.847 800.48 970.021 798.625 969.092 797.153H924.093V778.587H966.289C970.021 778.587 972.956 777.453 975.094 775.185C977.218 772.918 978.295 769.326 978.295 764.408C978.295 761.611 977.926 759.093 977.189 756.825C976.451 754.558 975.625 752.703 974.681 751.23H908.68C902.943 751.23 898.415 752.894 895.082 756.222C891.749 759.549 890.082 764.084 890.082 769.797V854.25C890.082 859.978 891.749 864.498 895.082 867.825C898.415 871.153 902.943 872.817 908.68 872.817H967.086C970.817 872.817 973.752 871.712 975.891 869.519C978.029 867.325 979.091 863.762 979.091 858.829C979.091 856.032 978.723 853.441 977.985 851.041C977.248 848.641 976.422 846.712 975.478 845.254V845.284Z" fill="white"/>
<path d="M1090.29 751.246H1002.49C998.754 751.246 995.789 752.38 993.592 754.647C991.394 756.915 990.288 760.566 990.288 765.631C990.288 768.428 990.657 771.02 991.394 773.42C992.132 775.82 992.958 777.748 993.902 779.206H1024.11V857.27C1024.11 863.395 1025.51 867.694 1028.31 870.153C1031.11 872.611 1035.98 873.848 1042.91 873.848C1046.11 873.848 1049.24 873.642 1052.31 873.245C1055.37 872.847 1057.65 872.449 1059.11 872.052V779.206H1081.7C1085.43 779.206 1088.4 778.043 1090.6 775.716C1092.79 773.39 1093.9 769.768 1093.9 764.836C1093.9 762.038 1093.53 759.447 1092.79 757.047C1092.06 754.647 1091.23 752.718 1090.29 751.261V751.246Z" fill="white"/>
<path d="M1161.49 796.565L1150.89 793.164C1147.55 792.104 1144.99 790.94 1143.19 789.674C1141.39 788.408 1140.49 786.774 1140.49 784.786C1140.49 782.254 1141.89 780.163 1144.69 778.499C1147.49 776.835 1151.89 776.011 1157.89 776.011C1163.9 776.011 1169.16 776.703 1174.09 778.101C1179.01 779.5 1182.95 781.135 1185.89 782.99C1188.16 781.267 1190.09 779.132 1191.68 776.6C1193.28 774.067 1194.09 771.137 1194.09 767.81C1194.09 763.157 1192.35 759.329 1188.88 756.326C1185.41 753.337 1180.68 751.099 1174.68 749.641C1168.67 748.183 1161.8 747.447 1154.07 747.447C1138.34 747.447 1126.11 750.848 1117.38 757.636C1108.65 764.423 1104.28 773.478 1104.28 784.786C1104.28 792.501 1105.95 798.758 1109.28 803.558C1112.61 808.343 1117.24 812.245 1123.19 815.234C1129.12 818.223 1135.96 821.065 1143.69 823.715L1152.1 826.512C1155.96 827.837 1158.97 829.28 1161.09 830.811C1163.23 832.343 1164.29 834.433 1164.29 837.098C1164.29 839.763 1162.95 842.163 1160.3 844.283C1157.63 846.418 1153.03 847.478 1146.49 847.478C1139.96 847.478 1134.19 846.418 1128.79 844.283C1123.4 842.163 1118.82 839.631 1115.09 836.701C1112.42 838.173 1109.96 840.264 1107.69 842.988C1105.42 845.712 1104.3 849.01 1104.3 852.867C1104.3 857.799 1106.23 861.981 1110.09 865.441C1113.96 868.901 1119.16 871.507 1125.7 873.23C1132.23 874.952 1139.56 875.821 1147.7 875.821C1164.9 875.821 1178 872.258 1187.01 865.132C1196 858.02 1200.5 848.789 1200.5 837.481C1200.5 826.836 1197.17 818.341 1190.5 812.024C1183.84 805.708 1174.16 800.54 1161.51 796.55L1161.49 796.565Z" fill="white"/>
<path d="M1218.7 788.186C1219.1 795.107 1219.57 801.438 1220.1 807.15C1220.64 812.878 1221.17 817.265 1221.7 820.328C1222.36 823.655 1224.03 825.952 1226.7 827.218C1229.37 828.485 1232.57 829.118 1236.3 829.118C1238.16 829.118 1240.46 828.853 1243.2 828.323C1245.93 827.793 1247.83 827.056 1248.91 826.129C1249.84 821.211 1250.63 815.646 1251.31 809.462C1251.98 803.278 1252.48 797.021 1252.82 790.689C1253.14 784.373 1253.42 778.572 1253.61 773.316C1253.82 768.06 1253.91 763.908 1253.91 760.83C1253.91 755.633 1252.4 751.775 1249.41 749.243C1246.42 746.711 1242.17 745.444 1236.71 745.444C1229.65 745.444 1223.25 747.034 1217.51 750.229C1217.51 755.294 1217.61 761.14 1217.8 767.795C1218.01 774.45 1218.3 781.237 1218.7 788.157V788.186Z" fill="white"/>
<path d="M1250.29 843.59C1246.83 840.072 1242.15 838.305 1236.3 838.305C1230.44 838.305 1225.77 840.072 1222.3 843.59C1218.83 847.124 1217.09 851.615 1217.09 857.062C1217.09 862.51 1218.82 867.015 1222.3 870.534C1225.77 874.053 1230.43 875.82 1236.3 875.82C1242.17 875.82 1246.83 874.053 1250.29 870.534C1253.76 867.015 1255.5 862.51 1255.5 857.062C1255.5 851.615 1253.76 847.109 1250.29 843.59Z" fill="white"/>
<path d="M1058.72 371.593C1051.85 356.178 1035.66 346.224 1019.12 344.487H1019.08C1007.85 343.28 996.277 344.899 985.613 348.521C974.891 352.261 967.694 356.089 958.697 355.942C949.7 356.089 942.503 352.261 931.78 348.521C921.117 344.899 909.539 343.28 898.315 344.472H898.271C881.752 346.21 865.543 356.163 858.67 371.578C853.124 384.343 853.832 399.936 860.735 412.112C861.708 413.79 862.859 415.366 864.127 416.853H864.098C864.098 416.853 878.301 443.649 958.682 443.649C1032.87 443.649 1052.03 418.237 1052.03 418.237H1051.98C1053.77 416.367 1055.36 414.335 1056.64 412.112C1063.55 399.936 1064.25 384.343 1058.71 371.578L1058.72 371.593Z" fill="#F5C8A7"/>
<path opacity="0.25" d="M917.516 392.957C918.917 380.53 935.097 373.875 944.595 382.282C946.099 383.446 945.391 386.022 943.533 386.287C941.173 386.699 938.858 386.537 936.645 387.023C930.525 387.833 926.1 391.588 921.085 395.077C919.551 396.196 917.265 394.797 917.516 392.942V392.957Z" fill="#442106"/>
<path opacity="0.25" d="M996.525 394.812C991.643 391.352 987.336 387.833 981.377 387.024C979.298 386.582 977.233 386.67 974.976 386.376C973.546 386.302 972.351 385.11 972.631 383.652C973.177 381.753 975.36 380.958 976.938 380C981.009 378.131 985.861 377.998 990.094 379.78C994.327 381.502 997.586 384.741 999.386 388.776C999.932 390.101 1000.34 391.367 1000.51 392.957C1000.68 395.18 998.132 396.255 996.525 394.812Z" fill="#442106"/>
</g>
<defs>
<clipPath id="clip0_3802_3655">
<rect width="1920" height="1080" fill="white"/>
</clipPath>
</defs>
</svg>
