<?xml version="1.0" encoding="UTF-8"?>
<svg id="Laag_2" data-name="Laag 2" xmlns="http://www.w3.org/2000/svg" viewBox="0 0 348.32 476.26">
  <defs>
    <style>
      .cls-1 {
        fill: #1d1d1b;
      }
    </style>
  </defs>
  <g id="Laag_1-2" data-name="Laag 1">
    <path class="cls-1" d="M194.54,189.69c-5.5,4.87-10.52,10.71-15.05,17.44l30.88-28.04c-5.56,2.64-10.82,6.18-15.82,10.61ZM167.39,173.08c10.99-7.04,22.8-12.33,35.34-15.76L141.71,0h-6.87L33.93,260.23c-8.31,21.47-19.6,33.93-33.93,37.36v8.59c8.59-.86,19.32-1.29,32.21-1.29,16.6,0,33.07.43,49.38,1.29v-8.59c-12.6-.28-21.97-2.43-28.13-6.44-6.16-4.02-9.23-10.46-9.23-19.32,0-8.03,2.86-19.75,8.59-35.21l17.61-45.52h74.59c3.01-3.03,6.16-5.9,9.45-8.59h-80.6L122.82,54.11l44.57,118.97ZM210.3,161.92c-2.02.41-4.02.9-5.97,1.46-12.39,3.33-24.01,8.52-34.87,15.57-.17.11-.34.24-.52.34-1.76,1.14-3.48,2.34-5.17,3.59-3.69,2.66-7.21,5.52-10.56,8.59-2.17,1.93-4.27,3.97-6.27,6.08h22.57l3.22,8.63c1.33-2.13,2.73-4.19,4.19-6.16,4.12-5.69,8.65-10.69,13.59-15.05,5.52-4.87,11.4-8.8,17.65-11.72,1.85-.88,3.71-1.68,5.6-2.36l-3.46-8.95Z"/>
    <path class="cls-1" d="M204.33,163.01c-12.58,3.38-24.37,8.69-35.38,15.9h0s1.35,3.6,1.35,3.6h-6.53c-3.69,2.66-7.21,5.52-10.56,8.59h20.53l3.18,8.54c4.12-5.69,8.65-10.69,13.59-15.05,5.52-4.87,11.4-8.8,17.65-11.72l-3.82-9.86ZM245.21,270.66l-35.51-91.58c-5.56,2.64-10.82,6.18-15.82,10.61-5.5,4.87-10.52,10.71-15.05,17.44l20.44,54.95c3.44,8.59,5.15,15.31,5.15,20.18,0,5.71-2.36,9.66-7.09,11.81s-12.52,3.5-23.4,4.08v8.59c12.02-.86,30.34-1.29,54.97-1.29,19.17,0,34.5.43,45.95,1.29v-8.59c-12.88-.58-22.76-9.75-29.63-27.48ZM167.39,173.08c10.99-7.04,22.8-12.33,35.34-15.76L141.71,0h-6.87L33.93,260.23c-8.31,21.47-19.6,33.93-33.93,37.36v8.59c8.59-.86,19.32-1.29,32.21-1.29,16.6,0,33.07.43,49.38,1.29v-8.59c-12.6-.28-21.97-2.43-28.13-6.44-6.16-4.02-9.23-10.46-9.23-19.32,0-8.03,2.86-19.75,8.59-35.21l17.61-45.52h74.59c3.01-3.03,6.16-5.9,9.45-8.59h-80.6L122.82,54.11l44.57,118.97Z"/>
    <path class="cls-1" d="M346.6,367.16c0,49.23.58,83.59,1.72,103.06h-9.55c-.86-9.19-2.09-15.72-3.66-19.59-1.57-3.88-3.81-5.81-6.68-5.81-2.3,0-5.32,1.14-9.04,3.45-12.92,9.19-25.26,16.15-37.04,20.89-11.78,4.74-25.99,7.11-42.63,7.11-27.28,0-51.18-6.18-71.7-18.52-20.52-12.34-36.45-30.21-47.8-53.61-11.35-23.41-17.01-51.31-17.01-83.76s5.81-59.58,17.44-83.98c7.02-14.71,15.7-27.45,26.08-38.2,2-2.11,4.11-4.16,6.29-6.09,3.36-3.08,6.89-5.94,10.59-8.61,1.7-1.25,3.42-2.45,5.19-3.6.17-.11.34-.24.52-.34,10.9-7.06,22.54-12.27,34.97-15.61,1.96-.56,3.96-1.06,5.99-1.46,9.52-2.13,19.47-3.17,29.89-3.17,17.23,0,31.87,2.43,43.93,7.32,12.06,4.89,23.84,11.78,35.31,20.67,3.17,2.58,5.88,3.88,8.18,3.88,5.75,0,9.47-8.61,11.2-25.84h9.55c-1.14,18.62-1.72,51.53-1.72,98.77h-9.08c-3.18-18.77-6.06-32.26-8.66-40.49-2.6-8.23-6.93-16.09-12.99-23.6-8.66-11.26-19.7-19.7-33.13-25.33-13.42-5.63-27.93-8.44-43.52-8.44-9.14,0-17.69,1.47-25.7,4.42-1.91.69-3.79,1.49-5.65,2.38-6.3,2.94-12.23,6.91-17.8,11.82-4.98,4.4-9.55,9.44-13.71,15.18-1.47,1.99-2.88,4.07-4.22,6.21-5.78,9.12-10.7,19.66-14.77,31.66-7.79,22.95-11.69,49.86-11.69,80.76s4.18,58.46,12.56,80.98c8.38,22.52,19.98,39.62,34.86,51.31,14.88,11.69,31.68,17.54,50.45,17.54,14.44,0,28.43-2.75,42-8.23,13.58-5.48,24.25-13.71,32.04-24.68,5.78-8.08,9.96-16.74,12.56-25.98,2.6-9.24,5.05-23.38,7.36-42.44h9.08Z"/>
    <path class="cls-1" d="M337.52,367.16c-2.32,19.05-4.76,33.19-7.36,42.44-2.6,9.25-6.78,17.91-12.56,25.98-7.79,10.98-18.47,19.21-32.04,24.68-13.58,5.48-27.56,8.23-42,8.23-18.77,0-35.57-5.85-50.45-17.54-14.87-11.69-26.48-28.8-34.86-51.31-8.38-22.52-12.56-49.5-12.56-80.98s3.9-57.81,11.69-80.76c4.07-12,8.99-22.54,14.77-31.66,1.34-2.14,2.75-4.22,4.22-6.21,4.16-5.74,8.73-10.78,13.71-15.18,5.56-4.92,11.5-8.88,17.8-11.82,1.86-.89,3.75-1.69,5.65-2.38,8.01-2.94,16.56-4.42,25.7-4.42,15.59,0,30.1,2.82,43.52,8.44,13.42,5.63,24.47,14.07,33.13,25.33,6.06,7.51,10.39,15.37,12.99,23.6,2.6,8.23,5.48,21.72,8.66,40.49h9.08c0-47.24.58-80.15,1.72-98.77h-9.55c-1.72,17.23-5.45,25.84-11.2,25.84-2.3,0-5.02-1.29-8.18-3.88-11.48-8.89-23.25-15.78-35.31-20.67-12.06-4.89-26.7-7.32-43.93-7.32-10.42,0-20.37,1.03-29.89,3.17-2.02.41-4.03.9-5.99,1.46-12.42,3.34-24.07,8.55-34.97,15.61-.17.11-.34.24-.52.34-1.77,1.14-3.49,2.35-5.19,3.6-3.7,2.67-7.24,5.53-10.59,8.61-2.17,1.94-4.28,3.98-6.29,6.09-10.38,10.75-19.06,23.49-26.08,38.2-11.63,24.4-17.44,52.39-17.44,83.98s5.66,60.35,17.01,83.76c11.35,23.41,27.28,41.28,47.8,53.61,20.52,12.34,44.42,18.52,71.7,18.52,16.64,0,30.86-2.37,42.63-7.11,11.78-4.74,24.12-11.69,37.04-20.89,3.73-2.3,6.74-3.45,9.04-3.45,2.86,0,5.1,1.94,6.68,5.81,1.57,3.88,2.8,10.4,3.66,19.59h9.55c-1.14-19.48-1.72-53.83-1.72-103.06h-9.08Z"/>
  </g>
</svg>